<svg id="图层_1" data-name="图层 1" xmlns="http://www.w3.org/2000/svg" viewBox="0 0 247.94 56.07"><defs><style>.cls-1{fill:#fff;}.cls-2{fill:#ff9110;}</style></defs><title>DHonor logo白字</title><path class="cls-1" d="M120.22,47.34A18.35,18.35,0,0,1,133.71,53a19.19,19.19,0,0,1-.07,27.23,19.59,19.59,0,0,1-27.53,0,19.19,19.19,0,0,1,0-27.32A19.48,19.48,0,0,1,120.22,47.34ZM119.85,61a5.09,5.09,0,0,0-3.79,1.61,5.74,5.74,0,0,0,0,7.89,5.21,5.21,0,0,0,7.57,0,5.43,5.43,0,0,0,1.58-3.93,5.49,5.49,0,0,0-1.56-4A5.12,5.12,0,0,0,119.85,61Z" transform="translate(-1.06 -29.95)"/><path class="cls-1" d="M178.13,85.13H164.25V64.23c0-2.13-.88-3.19-2.64-3.19S159,62.1,159,64.23v20.9H145.13V64.49a16.9,16.9,0,0,1,4.79-12.2,16.68,16.68,0,0,1,24.46.8q3.75,4.5,3.75,12.51Z" transform="translate(-1.06 -29.95)"/><path class="cls-1" d="M249,47.75V62.6a5.41,5.41,0,0,0-2.64-.82q-3.78,0-3.78,5.79V85.13H228.69V64.9q0-8,4.38-12.79t11.7-4.77A27.41,27.41,0,0,1,249,47.75Z" transform="translate(-1.06 -29.95)"/><path class="cls-1" d="M16.13,48.88V85H1.06V34.33H20.7q12.91,0,20.23,5.87,8.68,7,8.69,19,0,11.5-7.42,18.78c-5,4.85-11.27,7-19.06,7-.92,0-6.16,0-8.24-.06L15,70.12l6,.15q13.17,0,13.18-11,0-10.37-13-10.36Z" transform="translate(-1.06 -29.95)"/><path class="cls-1" d="M78.88,52.45V65.81h-7.1V85H56.71V34.33H71.78V52.45ZM93.61,34.33V85H78.54V34.33Z" transform="translate(-1.06 -29.95)"/><path class="cls-2" d="M120.23,45.12a18.45,18.45,0,0,1,8.85,2.15l2.35-12.34-6.32,4.54L119.84,30l-5.24,9.53-6.28-4.55,2.31,12.44A20.24,20.24,0,0,1,120.23,45.12Z" transform="translate(-1.06 -29.95)"/><path class="cls-2" d="M203.31,47.12a19.45,19.45,0,1,0,19.45,19.45A19.45,19.45,0,0,0,203.31,47.12Zm0,9.81a9.64,9.64,0,1,1-9.64,9.64A9.64,9.64,0,0,1,203.31,56.93ZM189.44,73.62l-1.81,1.09.24-2.1-1.59-1.38,2.06-.42.82-1.94,1,1.83,2.1.18-1.42,1.56.48,2Zm6.39,6.66L195,82.2l-1-1.86-2.09-.24,1.46-1.52-.42-2.06,1.9.92,1.83-1-.29,2.08,1.55,1.43Zm9.34,3.83-1.86-1-1.87,1L201.8,82l-1.51-1.47,2.08-.3.94-1.89.93,1.89,2.08.3L204.82,82Zm7.42-3.79-1,1.87-.87-1.92-2.08-.37,1.55-1.42-.29-2.09,1.83,1,1.9-.93-.42,2.07,1.47,1.51Zm4.64-6.7-1.92.87.48-2-1.42-1.56,2.1-.18,1-1.83.82,1.94,2.07.42-1.6,1.38.24,2.1Z" transform="translate(-1.06 -29.95)"/></svg>